<svg width="40" height="35" viewBox="0 0 40 35" fill="none" xmlns="http://www.w3.org/2000/svg">
<path d="M35.4371 3.94287H29.257L25.7066 0.0366211H14.0038L10.4535 3.94287H4.27339C2.16951 3.94287 0.328613 5.63558 0.328613 7.84912V31.0262C0.328613 33.1095 2.03802 34.9324 4.27339 34.9324H35.4371C37.541 34.9324 39.3819 33.2397 39.3819 31.0262V7.71891C39.3819 5.63558 37.6725 3.94287 35.4371 3.94287ZM35.4371 30.896H4.40488V7.71891H12.2944L15.8447 3.81266H24.1287L27.5475 7.71891H35.4371V30.896ZM19.921 9.67204C14.5298 9.67204 10.1905 13.9689 10.1905 19.3075C10.1905 24.646 14.5298 28.9429 19.921 28.9429C25.3122 28.9429 29.6514 24.646 29.6514 19.3075C29.6514 13.9689 25.3122 9.67204 19.921 9.67204ZM19.921 25.1668C16.7652 25.1668 14.1353 22.5627 14.1353 19.4377C14.1353 16.3127 16.7652 13.7085 19.921 13.7085C23.0768 13.7085 25.7066 16.3127 25.7066 19.4377C25.7066 22.5627 23.0768 25.1668 19.921 25.1668Z" fill="#911C1C"/>
</svg>
