<?xml version="1.0" standalone="no"?>
<!DOCTYPE svg PUBLIC "-//W3C//DTD SVG 20010904//EN"
 "http://www.w3.org/TR/2001/REC-SVG-20010904/DTD/svg10.dtd">
<svg version="1.0" xmlns="http://www.w3.org/2000/svg"
 width="640.000000pt" height="640.000000pt" viewBox="0 0 640.000000 640.000000"
 preserveAspectRatio="xMidYMid meet">
<metadata>
Created by potrace 1.14, written by Peter Selinger 2001-2017
</metadata>
<g transform="translate(0.000000,640.000000) scale(0.100000,-0.100000)"
fill="#000000" stroke="none">
<path d="M2189 5937 c-30 -32 -67 -72 -82 -90 -16 -18 -62 -68 -102 -112 -40
-44 -83 -92 -96 -106 -13 -14 -62 -68 -109 -119 -47 -51 -94 -103 -105 -116
l-20 -23 -555 -3 c-548 -4 -556 -4 -624 -27 -202 -67 -354 -222 -422 -431 -17
-52 -18 -160 -19 -1995 -1 -1567 1 -1952 11 -2005 8 -36 32 -103 55 -150 33
-68 58 -101 123 -165 90 -89 168 -133 289 -165 70 -18 146 -19 2657 -16 1422
1 2596 5 2610 8 42 10 190 69 190 76 0 4 13 13 29 20 16 7 59 42 95 78 98 97
165 228 180 354 4 30 7 915 7 1966 0 1656 -2 1919 -15 1975 -55 238 -214 393
-477 466 -13 4 -273 9 -577 10 l-554 4 -31 36 c-18 20 -37 41 -42 47 -6 6 -56
60 -110 121 -55 60 -109 119 -120 131 -11 11 -51 56 -90 99 -38 43 -93 103
-122 134 l-51 56 -935 0 -935 0 -53 -58z m1766 -653 c50 -58 104 -120 120
-139 17 -18 50 -55 73 -82 23 -27 52 -61 64 -75 13 -14 46 -51 74 -84 28 -32
67 -77 87 -99 l36 -40 628 0 628 0 0 -1855 0 -1854 -2465 -1 c-1356 0 -2472 2
-2480 6 -13 6 -15 221 -15 1856 l0 1848 633 0 632 0 23 26 c12 15 45 51 72 81
28 30 82 90 120 132 39 43 86 95 105 116 92 100 190 208 215 238 l27 32 666
-1 667 0 90 -105z"/>
<path d="M3188 4455 c-1 -1 -50 -5 -108 -8 -98 -6 -143 -11 -180 -22 -8 -3
-33 -7 -54 -11 -22 -3 -69 -15 -105 -27 -36 -11 -68 -21 -71 -21 -8 -2 -72
-27 -115 -46 -22 -10 -43 -18 -47 -19 -10 -2 -157 -86 -182 -103 -55 -38 -157
-117 -180 -140 -17 -15 -33 -28 -38 -28 -4 0 -8 -3 -8 -7 0 -5 -32 -42 -71
-83 -74 -79 -197 -256 -241 -350 -32 -69 -77 -180 -83 -205 -2 -5 -10 -35 -19
-66 -9 -31 -19 -67 -21 -80 -3 -13 -7 -35 -10 -49 -15 -78 -20 -141 -20 -280
1 -174 6 -224 40 -360 83 -333 250 -599 523 -833 152 -130 457 -275 657 -313
11 -2 31 -6 45 -9 68 -15 108 -18 260 -20 91 -2 190 1 220 6 30 5 73 11 95 14
94 13 285 76 395 129 76 37 165 88 172 100 4 6 8 8 8 3 0 -4 8 0 18 8 9 8 53
44 97 78 111 88 194 173 288 297 58 76 148 242 185 340 11 30 23 64 28 75 4
11 8 25 9 30 2 6 8 30 15 55 7 25 13 50 14 55 1 6 5 24 9 40 29 130 38 330 22
475 -11 103 -42 241 -76 337 -37 106 -129 288 -175 349 -19 24 -34 48 -34 53
0 5 -3 11 -7 13 -5 2 -28 28 -53 58 -259 320 -668 530 -1085 556 -49 3 -95 7
-102 9 -6 2 -13 2 -15 0z m167 -665 c228 -43 427 -168 570 -355 53 -71 91
-135 113 -190 6 -16 17 -43 23 -60 15 -37 13 -29 28 -98 30 -136 31 -241 5
-381 -17 -93 -71 -219 -136 -318 -40 -61 -209 -238 -228 -238 -5 0 -15 -6 -22
-13 -28 -27 -227 -125 -240 -117 -2 1 -16 -4 -33 -10 -16 -7 -68 -18 -114 -25
-422 -64 -840 181 -999 585 -65 165 -76 387 -27 555 64 223 203 411 393 532
113 73 253 125 372 139 30 3 56 8 58 9 8 7 182 -4 237 -15z"/>
</g>
</svg>
